<svg width="566" height="530" viewBox="0 0 566 530" fill="none" xmlns="http://www.w3.org/2000/svg">
<mask id="mask0_1913_143" style="mask-type:alpha" maskUnits="userSpaceOnUse" x="-1" y="-1" width="533" height="531">
<mask id="path-1-outside-1_1913_143" maskUnits="userSpaceOnUse" x="-0.804688" y="-0.32373" width="533" height="531" fill="black">
<rect fill="white" x="-0.804688" y="-0.32373" width="533" height="531"/>
<path d="M265.597 397.616L248.9 529.676L249.03 396.573L215.896 525.505L232.593 393.444L183.544 517.292L216.678 388.229L152.496 505.037L201.676 381.19L123.275 489.002L187.588 372.194L96.4026 469.317L174.673 361.635L72.0082 446.503L163.324 349.511L50.7447 420.821L153.54 335.953L32.873 392.662L145.452 321.352L18.6538 362.547L139.321 305.838L8.34821 330.868L135.146 289.673L2.08655 298.147L133.059 273.247L-0.000671387 264.903L133.059 256.56L2.08655 231.66L135.146 240.004L8.34821 198.938L139.321 223.838L18.6538 167.129L145.452 208.325L32.873 137.015L153.54 193.724L50.7447 108.856L163.324 180.296L72.0082 83.1735L174.673 168.172L96.4026 60.3595L187.588 157.482L123.275 40.8046L201.676 148.617L152.496 24.7696L216.678 141.447L183.544 12.5153L232.593 136.363L215.896 4.17181L249.03 133.234L248.9 0.00012207L265.597 132.191L282.295 0.00012207V133.234L315.43 4.17181L298.601 136.363L347.651 12.5153L314.516 141.447L378.698 24.7696L329.518 148.617L407.919 40.8046L343.607 157.482L434.923 60.3595L356.522 168.172L459.186 83.1735L367.871 180.296L480.45 108.856L377.655 193.724L498.322 137.015L385.743 208.325L512.541 167.129L391.874 223.838L522.846 198.938L396.048 240.004L529.108 231.66L398.135 256.56L531.195 264.903L398.135 273.247L529.108 298.147L396.048 289.673L522.846 330.868L391.874 305.838L512.541 362.547L385.743 321.352L498.322 392.662L377.655 335.953L480.45 420.821L367.871 349.511L459.186 446.503L356.522 361.635L434.923 469.317L343.607 372.194L407.919 489.002L329.518 381.19L378.698 505.037L314.516 388.229L347.651 517.292L298.601 393.444L315.43 525.505L282.295 396.573V529.676L265.597 397.616Z"/>
</mask>
<path d="M265.597 397.616L248.9 529.676L249.03 396.573L215.896 525.505L232.593 393.444L183.544 517.292L216.678 388.229L152.496 505.037L201.676 381.19L123.275 489.002L187.588 372.194L96.4026 469.317L174.673 361.635L72.0082 446.503L163.324 349.511L50.7447 420.821L153.54 335.953L32.873 392.662L145.452 321.352L18.6538 362.547L139.321 305.838L8.34821 330.868L135.146 289.673L2.08655 298.147L133.059 273.247L-0.000671387 264.903L133.059 256.56L2.08655 231.66L135.146 240.004L8.34821 198.938L139.321 223.838L18.6538 167.129L145.452 208.325L32.873 137.015L153.54 193.724L50.7447 108.856L163.324 180.296L72.0082 83.1735L174.673 168.172L96.4026 60.3595L187.588 157.482L123.275 40.8046L201.676 148.617L152.496 24.7696L216.678 141.447L183.544 12.5153L232.593 136.363L215.896 4.17181L249.03 133.234L248.9 0.00012207L265.597 132.191L282.295 0.00012207V133.234L315.43 4.17181L298.601 136.363L347.651 12.5153L314.516 141.447L378.698 24.7696L329.518 148.617L407.919 40.8046L343.607 157.482L434.923 60.3595L356.522 168.172L459.186 83.1735L367.871 180.296L480.45 108.856L377.655 193.724L498.322 137.015L385.743 208.325L512.541 167.129L391.874 223.838L522.846 198.938L396.048 240.004L529.108 231.66L398.135 256.56L531.195 264.903L398.135 273.247L529.108 298.147L396.048 289.673L522.846 330.868L391.874 305.838L512.541 362.547L385.743 321.352L498.322 392.662L377.655 335.953L480.45 420.821L367.871 349.511L459.186 446.503L356.522 361.635L434.923 469.317L343.607 372.194L407.919 489.002L329.518 381.19L378.698 505.037L314.516 388.229L347.651 517.292L298.601 393.444L315.43 525.505L282.295 396.573V529.676L265.597 397.616Z" stroke="black" stroke-width="2" stroke-miterlimit="10" mask="url(#path-1-outside-1_1913_143)"/>
</mask>
<g mask="url(#mask0_1913_143)">
<rect x="1207.54" y="560.833" width="942.322" height="574.512" rx="45" transform="rotate(180 1207.54 560.833)" fill="black"/>
</g>
<path d="M487.052 145.419L449.691 125.063L487.052 104.543L507.49 67.2638L527.928 104.543L565.289 125.063L527.928 145.419L507.49 182.862L487.052 145.419Z" fill="#B9FF66"/>
<path d="M387.83 330.586L321.069 294.211L387.83 257.543L424.352 190.928L460.873 257.543L527.635 294.211L460.873 330.586L424.352 397.494L387.83 330.586Z" fill="#191A23"/>
<path d="M154.501 335.126L140.742 189.676H255.278L245.453 335.09C245.406 335.786 244.828 336.326 244.131 336.326H155.82C155.136 336.326 154.565 335.806 154.501 335.126Z" fill="white" stroke="black" stroke-width="1.35"/>
<path d="M140.63 157.934C140.661 157.783 140.794 157.675 140.948 157.675H255.052C255.206 157.675 255.339 157.783 255.37 157.934L259.09 175.934C259.132 176.136 258.978 176.325 258.772 176.325H137.228C137.022 176.325 136.868 176.136 136.91 175.934L140.63 157.934Z" fill="white" stroke="black" stroke-width="1.35"/>
<mask id="path-7-inside-2_1913_143" fill="white">
<rect x="131.996" y="177" width="132" height="16" rx="1"/>
</mask>
<rect x="131.996" y="177" width="132" height="16" rx="1" fill="white" stroke="black" stroke-width="2.7" mask="url(#path-7-inside-2_1913_143)"/>
<mask id="path-8-inside-3_1913_143" fill="white">
<path fill-rule="evenodd" clip-rule="evenodd" d="M232.004 157C232.004 145.954 216.782 137 198.004 137C179.226 137 164.004 145.954 164.004 157H232.004Z"/>
</mask>
<path fill-rule="evenodd" clip-rule="evenodd" d="M232.004 157C232.004 145.954 216.782 137 198.004 137C179.226 137 164.004 145.954 164.004 157H232.004Z" fill="black"/>
<path d="M232.004 157V158H233.004V157H232.004ZM164.004 157H163.004V158H164.004V157ZM198.004 138C207.246 138 215.565 140.206 221.539 143.72C227.536 147.247 231.004 151.976 231.004 157H233.004C233.004 150.978 228.861 145.707 222.553 141.996C216.221 138.271 207.539 136 198.004 136V138ZM165.004 157C165.004 151.976 168.472 147.247 174.469 143.72C180.443 140.206 188.762 138 198.004 138V136C188.468 136 179.787 138.271 173.455 141.996C167.147 145.707 163.004 150.978 163.004 157H165.004ZM164.004 158H232.004V156H164.004V158Z" fill="black" mask="url(#path-8-inside-3_1913_143)"/>
<path d="M100.5 327.39C100.5 327.265 100.547 327.144 100.632 327.051L144.709 279.142C145.012 278.812 145.563 279.017 145.577 279.465L147.475 340.21C147.482 340.445 147.325 340.653 147.097 340.71L101.121 352.204C100.806 352.283 100.5 352.045 100.5 351.719V327.39Z" fill="black" stroke="black"/>
<path d="M299.5 327.39C299.5 327.265 299.453 327.144 299.368 327.051L255.291 279.142C254.988 278.812 254.437 279.017 254.423 279.465L252.525 340.21C252.518 340.445 252.675 340.653 252.903 340.71L298.879 352.204C299.194 352.283 299.5 352.045 299.5 351.719V327.39Z" fill="black" stroke="black"/>
<g clip-path="url(#clip0_1913_143)">
<path fill-rule="evenodd" clip-rule="evenodd" d="M199.778 293.823C215.468 292.46 227.871 275.483 227.87 254.74C227.87 235.97 217.715 220.284 204.157 216.46C204.636 217.313 205.132 218.242 205.629 219.236C208.153 224.283 210.843 231.313 210.843 238.556C210.843 242.702 209.272 246.2 207.205 249.186C205.209 252.069 202.599 254.679 200.248 257.03L200.138 257.139C197.662 259.615 195.467 261.825 193.853 264.157C192.278 266.431 191.421 268.597 191.421 270.924C191.421 276.629 193.587 282.547 195.918 287.21C197.067 289.506 198.217 291.423 199.076 292.759C199.341 293.172 199.578 293.529 199.778 293.823ZM191.321 293.02C177.764 289.196 167.608 273.51 167.608 254.74C167.608 233.998 180.01 217.021 195.701 215.658C195.9 215.952 196.137 216.308 196.402 216.721C197.262 218.058 198.412 219.974 199.56 222.271C201.891 226.934 204.057 232.851 204.057 238.556C204.057 240.884 203.2 243.05 201.626 245.324C200.011 247.656 197.816 249.865 195.34 252.341L195.231 252.45C192.879 254.801 190.269 257.411 188.274 260.294C186.206 263.28 184.636 266.779 184.636 270.924C184.636 278.167 187.326 285.197 189.849 290.245C190.346 291.238 190.843 292.168 191.321 293.02Z" fill="black"/>
</g>
<path d="M184 348.999L187.541 346.975C189.808 345.68 192.373 344.999 194.983 344.999H198H201.017C203.627 344.999 206.192 345.68 208.459 346.975L212 348.999" stroke="black" stroke-linecap="round"/>
<path d="M197.999 354.198C189.397 354.198 182.398 360.789 182.398 368.891C182.398 380.198 197.999 395.798 197.999 395.798C197.999 395.798 213.598 380.198 213.598 368.891C213.598 360.789 206.6 354.198 197.999 354.198Z" fill="black"/>
<path d="M197.999 354.198C193.698 354.198 190.198 357.494 190.198 361.545C190.198 367.198 197.999 374.998 197.999 374.998C197.999 374.998 205.798 367.198 205.798 361.545C205.798 357.494 202.299 354.198 197.999 354.198Z" fill="black"/>
<path d="M197.999 354.198C189.397 354.198 182.398 360.789 182.398 368.891C182.398 380.198 197.999 395.798 197.999 395.798C197.999 395.798 213.598 380.198 213.598 368.891C213.598 360.789 206.6 354.198 197.999 354.198ZM197.999 354.198C193.698 354.198 190.198 357.494 190.198 361.545C190.198 367.198 197.999 374.998 197.999 374.998C197.999 374.998 205.798 367.198 205.798 361.545C205.798 357.494 202.299 354.198 197.999 354.198Z" stroke="black" stroke-linejoin="round"/>
<defs>
<clipPath id="clip0_1913_143">
<rect width="76" height="76" fill="white" transform="translate(144 254.74) rotate(-45)"/>
</clipPath>
</defs>
</svg>
