<svg width="150" height="150" viewBox="0 0 207 207" fill="none" xmlns="http://www.w3.org/2000/svg">
<path d="M66.7616 139.658L0.000179862 103.283L66.7616 66.6153L103.283 -0.000128557L139.805 66.6153L206.566 103.283L139.805 139.658L103.283 206.566L66.7616 139.658Z" fill="#B9FF66"/>
<path d="M60.736 91.152C62.7626 91.152 64.4586 91.344 65.824 91.728C67.2106 92.0907 68.2453 92.6987 68.928 93.552C69.632 94.384 69.984 95.5147 69.984 96.944C69.984 97.7973 69.8453 98.576 69.568 99.28C69.2906 99.984 68.8853 100.56 68.352 101.008C67.84 101.456 67.2106 101.744 66.464 101.872V102.032C67.232 102.181 67.9253 102.448 68.544 102.832C69.1626 103.216 69.6533 103.771 70.016 104.496C70.3786 105.221 70.56 106.181 70.56 107.376C70.56 108.763 70.2186 109.957 69.536 110.96C68.8746 111.941 67.9146 112.699 66.656 113.232C65.3973 113.744 63.904 114 62.176 114H53.632V91.152H60.736ZM61.28 100.208C62.688 100.208 63.6586 99.984 64.192 99.536C64.7466 99.088 65.024 98.4373 65.024 97.584C65.024 96.7093 64.704 96.08 64.064 95.696C63.424 95.312 62.4106 95.12 61.024 95.12H58.464V100.208H61.28ZM58.464 104.048V110H61.632C63.0826 110 64.096 109.723 64.672 109.168C65.248 108.592 65.536 107.835 65.536 106.896C65.536 106.32 65.408 105.819 65.152 105.392C64.9173 104.965 64.5013 104.635 63.904 104.4C63.3066 104.165 62.496 104.048 61.472 104.048H58.464ZM90.62 105.232C90.62 106.683 90.4173 107.973 90.012 109.104C89.628 110.235 89.0626 111.195 88.316 111.984C87.5906 112.752 86.7053 113.339 85.66 113.744C84.6146 114.128 83.4306 114.32 82.108 114.32C80.892 114.32 79.7613 114.128 78.716 113.744C77.692 113.339 76.8066 112.752 76.06 111.984C75.3133 111.195 74.7266 110.235 74.3 109.104C73.8946 107.973 73.692 106.683 73.692 105.232C73.692 103.291 74.0333 101.659 74.716 100.336C75.3986 98.992 76.38 97.968 77.66 97.264C78.94 96.56 80.4546 96.208 82.204 96.208C83.8466 96.208 85.2973 96.56 86.556 97.264C87.8146 97.968 88.8066 98.992 89.532 100.336C90.2573 101.659 90.62 103.291 90.62 105.232ZM78.556 105.232C78.556 106.384 78.6733 107.355 78.908 108.144C79.164 108.912 79.5586 109.499 80.092 109.904C80.6253 110.288 81.3186 110.48 82.172 110.48C83.0253 110.48 83.708 110.288 84.22 109.904C84.7533 109.499 85.1373 108.912 85.372 108.144C85.628 107.355 85.756 106.384 85.756 105.232C85.756 104.08 85.628 103.12 85.372 102.352C85.1373 101.584 84.7533 101.008 84.22 100.624C83.6866 100.24 82.9933 100.048 82.14 100.048C80.8813 100.048 79.964 100.485 79.388 101.36C78.8333 102.213 78.556 103.504 78.556 105.232ZM111.296 89.008C111.19 90.1173 110.88 91.0987 110.368 91.952C109.856 92.784 109.056 93.4347 107.968 93.904C106.88 94.3733 105.419 94.608 103.584 94.608C101.707 94.608 100.235 94.384 99.1685 93.936C98.1231 93.4667 97.3765 92.816 96.9285 91.984C96.4805 91.152 96.2138 90.16 96.1285 89.008H100.384C100.491 90.1813 100.79 90.96 101.28 91.344C101.771 91.728 102.571 91.92 103.68 91.92C104.598 91.92 105.344 91.7173 105.92 91.312C106.518 90.8853 106.87 90.1173 106.976 89.008H111.296ZM99.1685 103.44C99.1685 103.803 99.1471 104.251 99.1045 104.784C99.0831 105.317 99.0511 105.861 99.0085 106.416C98.9871 106.971 98.9551 107.461 98.9125 107.888C98.8698 108.315 98.8378 108.613 98.8165 108.784L106.88 96.528H112.608V114H108V107.024C108 106.448 108.022 105.819 108.064 105.136C108.107 104.432 108.15 103.781 108.192 103.184C108.256 102.565 108.299 102.096 108.32 101.776L100.288 114H94.5605V96.528H99.1685V103.44ZM132.056 100.112H126.328V114H121.56V100.112H115.832V96.528H132.056V100.112ZM139.887 103.44C139.887 103.803 139.866 104.251 139.823 104.784C139.802 105.317 139.77 105.861 139.727 106.416C139.706 106.971 139.674 107.461 139.631 107.888C139.589 108.315 139.557 108.613 139.535 108.784L147.599 96.528H153.327V114H148.719V107.024C148.719 106.448 148.741 105.819 148.783 105.136C148.826 104.432 148.869 103.781 148.911 103.184C148.975 102.565 149.018 102.096 149.039 101.776L141.007 114H135.279V96.528H139.887V103.44Z" fill="black"/>
</svg>
