<svg width="351" height="50" viewBox="0 0 351 50" fill="none" xmlns="http://www.w3.org/2000/svg">
<path d="M16.8752 14.0006L51.325 10.7419L51.325 38.2779L16.9107 35.9526C16.2152 35.9056 15.675 35.3277 15.675 34.6306L15.675 15.3197C15.675 14.6363 16.1948 14.065 16.8752 14.0006Z" fill="#191A23" stroke="white" stroke-width="1.35"/>
<path d="M59.0658 10.5295C59.2167 10.5607 59.325 10.6937 59.325 10.8478L59.325 38.1522C59.325 38.3063 59.2167 38.4393 59.0658 38.4705L56.0658 39.0905C55.8641 39.1322 55.675 38.9781 55.675 38.7722L55.675 10.2278C55.675 10.0219 55.8641 9.86784 56.0658 9.90952L59.0658 10.5295Z" fill="#191A23" stroke="white" stroke-width="1.35"/>
<mask id="path-3-inside-1_1916_534" fill="white">
<rect x="55" y="8" width="33" height="4" rx="1" transform="rotate(90 55 8)"/>
</mask>
<rect x="55" y="8" width="33" height="4" rx="1" transform="rotate(90 55 8)" fill="#191A23" stroke="white" stroke-width="2.7" mask="url(#path-3-inside-1_1916_534)"/>
<mask id="path-4-inside-2_1916_534" fill="white">
<path fill-rule="evenodd" clip-rule="evenodd" d="M60 32.9995C62.7614 32.9995 65 29.1939 65 24.4995C65 19.8051 62.7614 15.9995 60 15.9995V32.9995Z"/>
</mask>
<path fill-rule="evenodd" clip-rule="evenodd" d="M60 32.9995C62.7614 32.9995 65 29.1939 65 24.4995C65 19.8051 62.7614 15.9995 60 15.9995V32.9995Z" fill="white"/>
<path d="M60 32.9995H59V33.9995H60V32.9995ZM60 15.9995V14.9995L59 14.9995V15.9995H60ZM64 24.4995C64 26.7001 63.4732 28.6435 62.6736 30.0029C61.8604 31.3854 60.8816 31.9995 60 31.9995V33.9995C61.8798 33.9995 63.401 32.7109 64.3975 31.0169C65.4075 29.2999 66 26.9934 66 24.4995H64ZM60 16.9995C60.8816 16.9995 61.8604 17.6136 62.6736 18.9961C63.4732 20.3555 64 22.299 64 24.4995H66C66 22.0057 65.4075 19.6991 64.3975 17.9821C63.401 16.2882 61.8798 14.9995 60 14.9995V16.9995ZM59 15.9995V32.9995H61V15.9995L59 15.9995Z" fill="white" mask="url(#path-4-inside-2_1916_534)"/>
<path d="M17.11 0.5C17.2354 0.5 17.3562 0.547126 17.4485 0.632034L27.8583 10.2091C28.188 10.5123 27.9831 11.0628 27.5354 11.0768L14.7902 11.4751C14.5551 11.4824 14.3466 11.3248 14.2895 11.0966L11.7957 1.12127C11.7168 0.805694 11.9555 0.5 12.2808 0.5L17.11 0.5Z" fill="white" stroke="white"/>
<path d="M17.11 49.5C17.2354 49.5 17.3562 49.4529 17.4485 49.368L27.8583 39.7909C28.188 39.4877 27.9831 38.9372 27.5354 38.9232L14.7902 38.5249C14.5551 38.5176 14.3466 38.6752 14.2895 38.9034L11.7957 48.8787C11.7168 49.1943 11.9555 49.5 12.2808 49.5H17.11Z" fill="white" stroke="white"/>
<g clip-path="url(#clip0_1916_534)">
<path fill-rule="evenodd" clip-rule="evenodd" d="M25.7939 24.9445C26.1345 28.8671 30.3788 31.9677 35.5645 31.9676C40.2569 31.9676 44.1786 29.4288 45.1344 26.0393C44.9214 26.1589 44.689 26.283 44.4405 26.4073C43.1787 27.0382 41.4211 27.7106 39.6105 27.7106C38.5741 27.7106 37.6995 27.318 36.953 26.8012C36.2322 26.3022 35.5798 25.6497 34.992 25.0619L34.9647 25.0346C34.3457 24.4156 33.7934 23.8668 33.2103 23.4632C32.6419 23.0696 32.1004 22.8554 31.5184 22.8554C30.0921 22.8554 28.6129 23.3967 27.4471 23.9796C26.8729 24.2667 26.3939 24.5541 26.0597 24.7689C25.9565 24.8353 25.8673 24.8946 25.7939 24.9445ZM25.9945 22.8302C26.9505 19.4409 30.872 16.9021 35.5645 16.9021C40.7501 16.9021 44.9943 20.0026 45.335 23.9252C45.2616 23.975 45.1724 24.0342 45.0692 24.1006C44.735 24.3154 44.256 24.6029 43.6818 24.8899C42.516 25.4728 41.0367 26.0142 39.6105 26.0142C39.0285 26.0142 38.487 25.7999 37.9186 25.4064C37.3355 25.0028 36.7832 24.454 36.1642 23.835L36.1369 23.8077C35.5492 23.2199 34.8967 22.5674 34.176 22.0684C33.4295 21.5516 32.5548 21.1589 31.5184 21.1589C29.7078 21.1589 27.9502 21.8314 26.6883 22.4624C26.4399 22.5865 26.2076 22.7107 25.9945 22.8302Z" fill="white"/>
</g>
<path d="M12 21L12.1318 21.2306C12.7007 22.2263 13 23.3532 13 24.5V24.5V24.5C13 25.6468 12.7007 26.7737 12.1318 27.7694L12 28" stroke="white" stroke-linecap="round"/>
<path d="M10.7012 24.4996C10.7012 22.3492 9.05337 20.5996 7.02797 20.5996C4.20117 20.5996 0.301172 24.4997 0.301172 24.4997C0.301172 24.4997 4.20117 28.3996 7.02797 28.3996C9.0534 28.3996 10.7012 26.6501 10.7012 24.4996Z" fill="white"/>
<path d="M10.7012 24.4996C10.7012 23.4244 9.87727 22.5496 8.86457 22.5496C7.45117 22.5496 5.50117 24.4996 5.50117 24.4996C5.50117 24.4996 7.45117 26.4496 8.86457 26.4496C9.87729 26.4496 10.7012 25.5749 10.7012 24.4996Z" fill="white"/>
<path d="M76.287 37L72.785 33.498V16.702L76.287 13.2H86.844L90.363 16.702V22.176H85.552V19.048L84.515 18.011H78.633L77.596 19.048V31.152L78.633 32.189H84.515L85.552 31.152V28.024H90.363V33.498L86.844 37H76.287ZM76.933 35.674H86.215L89.054 32.835V29.197H86.878V31.781L85.144 33.498H78.004L76.27 31.781V18.368L78.004 16.668H85.144L86.878 18.368V20.952H89.054V17.314L86.215 14.475H76.933L74.094 17.314V32.835L76.933 35.674ZM97.6074 37L94.1054 33.498V16.702L97.6074 13.2H108.895L112.397 16.702V33.498L108.895 37H97.6074ZM99.9534 32.189H106.549L107.586 31.152V19.048L106.549 18.011H99.9534L98.9164 19.048V31.152L99.9534 32.189ZM98.2874 35.64H108.232L111.088 32.801V17.314L108.232 14.475H98.2874L95.4484 17.314V32.801L98.2874 35.64ZM99.3584 33.464L97.6244 31.747V18.368L99.3584 16.668H107.178L108.895 18.368V31.747L107.178 33.464H99.3584ZM116.318 37V13.2H131.448V18.011H121.129V22.584H130.802V27.395H121.129V37H116.318ZM117.627 35.725H119.82V26.052H129.493V23.859H119.82V16.668H130.173V14.475H117.627V35.725ZM134.68 37V13.2H149.81V18.011H139.491V22.584H149.164V27.395H139.491V37H134.68ZM135.989 35.725H138.182V26.052H147.855V23.859H138.182V16.668H148.535V14.475H135.989V35.725ZM153.041 37V13.2H168.511V18.011H157.852V22.584H167.338V27.395H157.852V32.189H168.511V37H153.041ZM154.384 35.64H167.355V33.464H156.577V26.069H166.165V23.893H156.577V16.668H167.355V14.475H154.384V35.64ZM172.432 37V13.2H187.902V18.011H177.243V22.584H186.729V27.395H177.243V32.189H187.902V37H172.432ZM173.775 35.64H186.746V33.464H175.968V26.069H185.556V23.893H175.968V16.668H186.746V14.475H173.775V35.64ZM204.517 37L201.015 33.498V16.702L204.517 13.2H215.074L218.593 16.702V22.176H213.782V19.048L212.745 18.011H206.863L205.826 19.048V31.152L206.863 32.189H212.745L213.782 31.152V28.024H218.593V33.498L215.074 37H204.517ZM205.163 35.674H214.445L217.284 32.835V29.197H215.108V31.781L213.374 33.498H206.234L204.5 31.781V18.368L206.234 16.668H213.374L215.108 18.368V20.952H217.284V17.314L214.445 14.475H205.163L202.324 17.314V32.835L205.163 35.674ZM222.506 37V13.2H237.177L240.679 16.702V24.08L238.605 25.984L240.679 28.245V37H235.868V29.945L234.168 28.245H227.317V37H222.506ZM223.832 35.708H226.008V26.868H234.729L237.211 29.469V35.708H239.404V28.755L236.735 25.848L239.336 23.57V17.331L236.497 14.492H223.832V35.708ZM227.317 23.434H234.831L235.868 22.38V19.048L234.831 18.011H227.317V23.434ZM226.008 24.675V16.668H235.426L237.143 18.385V22.839L235.052 24.675H226.008ZM244.582 37V13.2H260.052V18.011H249.393V22.584H258.879V27.395H249.393V32.189H260.052V37H244.582ZM245.925 35.64H258.896V33.464H248.118V26.069H257.706V23.893H248.118V16.668H258.896V14.475H245.925V35.64ZM264.143 13.2H268.954V32.172H269.702L272.524 15.24H281.058L283.897 32.172H284.628V13.2H289.439V37H279.987L277.199 20.119H276.383L273.595 37H264.143V13.2ZM265.452 14.492V35.691H272.405L275.414 18.895H278.168L281.16 35.691H288.13V14.492H285.937V33.481H282.928L279.919 16.668H273.646L270.654 33.481H267.628V14.492H265.452Z" fill="white"/>
<defs>
<clipPath id="clip0_1916_534">
<rect width="19" height="19" fill="white" transform="translate(35.5645 11) rotate(45)"/>
</clipPath>
</defs>
</svg>
