<svg width="130" height="70" viewBox="0 0 196 150" fill="none" xmlns="http://www.w3.org/2000/svg">
<path d="M148.092 41.3242L39.998 31.0991L39.998 115.93L148.065 108.628C148.59 108.593 148.998 108.157 148.998 107.631V42.3197C148.998 41.8039 148.606 41.3728 148.092 41.3242Z" fill="white" stroke="black" stroke-width="2"/>
<path d="M16 30.9147L16 116.086L29 118.772L29 28.228L16 30.9147Z" fill="white" stroke="black" stroke-width="2"/>
<mask id="path-3-inside-1_1916_919" fill="white">
<rect width="99" height="12" rx="1" transform="matrix(0 1 1 0 30 24)"/>
</mask>
<rect width="99" height="12" rx="1" transform="matrix(0 1 1 0 30 24)" fill="white" stroke="black" stroke-width="4" mask="url(#path-3-inside-1_1916_919)"/>
<mask id="path-4-inside-2_1916_919" fill="white">
<path fill-rule="evenodd" clip-rule="evenodd" d="M15 98.9993C6.71573 98.9993 0 87.5825 0 73.4993C0 59.416 6.71573 47.9993 15 47.9993L15 98.9993Z"/>
</mask>
<path fill-rule="evenodd" clip-rule="evenodd" d="M15 98.9993C6.71573 98.9993 0 87.5825 0 73.4993C0 59.416 6.71573 47.9993 15 47.9993L15 98.9993Z" fill="black"/>
<path d="M15 98.9993H17V100.999H15V98.9993ZM15 47.9993V45.9993H17V47.9993H15ZM2 73.4993C2 80.2476 3.61319 86.2595 6.11727 90.5164C8.64854 94.8196 11.8561 96.9993 15 96.9993V100.999C9.85961 100.999 5.56719 97.4706 2.66953 92.5445C-0.255327 87.5723 -2 80.8342 -2 73.4993H2ZM15 49.9993C11.8561 49.9993 8.64854 52.1789 6.11727 56.4821C3.61319 60.739 2 66.7509 2 73.4993H-2C-2 66.1643 -0.255327 59.4263 2.66953 54.454C5.56719 49.528 9.85961 45.9993 15 45.9993V49.9993ZM17 47.9993L17 98.9993H13L13 47.9993H17Z" fill="black" mask="url(#path-4-inside-2_1916_919)"/>
<path d="M142.89 1L107.48 33.577L152.225 34.9753L160.719 1L142.89 1Z" fill="black" stroke="black" stroke-width="2"/>
<path d="M142.89 149L107.48 116.423L152.225 115.025L160.719 149L142.89 149Z" fill="black" stroke="black" stroke-width="2"/>
<g clip-path="url(#clip0_1916_919)">
<path fill-rule="evenodd" clip-rule="evenodd" d="M117.616 74.834C116.595 86.6018 103.862 95.9034 88.3047 95.9033C74.2272 95.9033 62.4622 88.2868 59.5948 78.1184C60.2339 78.4771 60.9311 78.8495 61.6764 79.2223C65.4618 81.1152 70.7346 83.1324 76.1665 83.1324C79.2758 83.1324 81.8997 81.9545 84.1392 80.404C86.3014 78.9071 88.2588 76.9496 90.022 75.1862L90.104 75.1042C91.9609 73.2473 93.6179 71.6009 95.367 70.39C97.0725 69.2094 98.6969 68.5665 100.443 68.5665C104.722 68.5665 109.159 70.1906 112.657 71.9393C114.379 72.8004 115.816 73.6629 116.819 74.3073C117.129 74.5064 117.396 74.6842 117.616 74.834ZM117.015 68.4912C114.147 58.3231 102.382 50.7068 88.3047 50.7068C72.7479 50.7068 60.0153 60.0083 58.993 71.776C59.2133 71.9255 59.4807 72.1031 59.7904 72.3022C60.7931 72.9468 62.2301 73.8091 63.9525 74.6702C67.4499 76.419 71.8879 78.043 76.1665 78.0431C77.9125 78.0431 79.5369 77.4003 81.2423 76.2197C82.9915 75.0087 84.6484 73.3624 86.5054 71.5055L86.5873 71.4235C88.3506 69.6601 90.3079 67.7026 92.4702 66.2056C94.7097 64.6552 97.3336 63.4773 100.443 63.4773C105.875 63.4773 111.147 65.4946 114.933 67.3875C115.678 67.76 116.375 68.1327 117.015 68.4912Z" fill="black"/>
</g>
<path d="M159.002 62.9998L157.056 66.4052C156.365 67.6139 156.002 68.9821 156.002 70.3743V73.4998V76.6252C156.002 78.0175 156.365 79.3856 157.056 80.5944L159.002 83.9998" stroke="black" stroke-width="2" stroke-linecap="round"/>
<path d="M162.898 73.4987C162.898 67.0473 167.842 61.7986 173.918 61.7986C182.398 61.7986 194.098 73.4988 194.098 73.4988C194.098 73.4988 182.398 85.1986 173.918 85.1986C167.842 85.1986 162.898 79.95 162.898 73.4987Z" fill="black"/>
<path d="M162.898 73.4987C162.898 70.273 165.37 67.6486 168.408 67.6486C172.648 67.6486 178.498 73.4987 178.498 73.4987C178.498 73.4987 172.648 79.3486 168.408 79.3486C165.37 79.3486 162.898 76.7243 162.898 73.4987Z" fill="black"/>
<path d="M162.898 73.4987C162.898 67.0473 167.842 61.7986 173.918 61.7986C182.398 61.7986 194.098 73.4988 194.098 73.4988C194.098 73.4988 182.398 85.1986 173.918 85.1986C167.842 85.1986 162.898 79.95 162.898 73.4987ZM162.898 73.4987C162.898 70.273 165.37 67.6486 168.408 67.6486C172.648 67.6486 178.498 73.4987 178.498 73.4987C178.498 73.4987 172.648 79.3486 168.408 79.3486C165.37 79.3486 162.898 76.7243 162.898 73.4987Z" stroke="black" stroke-width="2" stroke-linejoin="round"/>
<defs>
<clipPath id="clip0_1916_919">
<rect width="57" height="57" fill="white" transform="matrix(-0.707107 0.707107 0.707107 0.707107 88.3047 32.9998)"/>
</clipPath>
</defs>
</svg>
