<svg width="130" height="70" viewBox="0 0 196 150" fill="none" xmlns="http://www.w3.org/2000/svg">
<path d="M47.9078 41.3242L156.002 31.0991L156.002 115.93L47.9345 108.628C47.4096 108.593 47.002 108.157 47.002 107.631L47.002 42.3197C47.002 41.8039 47.3943 41.3728 47.9078 41.3242Z" fill="white" stroke="black" stroke-width="2"/>
<path d="M180 30.9147L180 116.086L167 118.772L167 28.228L180 30.9147Z" fill="white" stroke="black" stroke-width="2"/>
<mask id="path-3-inside-1_1916_903" fill="white">
<rect x="166" y="24" width="99" height="12" rx="1" transform="rotate(90 166 24)"/>
</mask>
<rect x="166" y="24" width="99" height="12" rx="1" transform="rotate(90 166 24)" fill="white" stroke="black" stroke-width="4" mask="url(#path-3-inside-1_1916_903)"/>
<mask id="path-4-inside-2_1916_903" fill="white">
<path fill-rule="evenodd" clip-rule="evenodd" d="M181 98.9993C189.284 98.9993 196 87.5825 196 73.4993C196 59.416 189.284 47.9993 181 47.9993V98.9993Z"/>
</mask>
<path fill-rule="evenodd" clip-rule="evenodd" d="M181 98.9993C189.284 98.9993 196 87.5825 196 73.4993C196 59.416 189.284 47.9993 181 47.9993V98.9993Z" fill="black"/>
<path d="M181 98.9993H179V100.999H181V98.9993ZM181 47.9993V45.9993H179V47.9993H181ZM194 73.4993C194 80.2476 192.387 86.2595 189.883 90.5164C187.351 94.8196 184.144 96.9993 181 96.9993V100.999C186.14 100.999 190.433 97.4706 193.33 92.5445C196.255 87.5723 198 80.8342 198 73.4993H194ZM181 49.9993C184.144 49.9993 187.351 52.1789 189.883 56.4821C192.387 60.739 194 66.7509 194 73.4993H198C198 66.1643 196.255 59.4263 193.33 54.454C190.433 49.528 186.14 45.9993 181 45.9993V49.9993ZM179 47.9993V98.9993H183V47.9993H179Z" fill="black" mask="url(#path-4-inside-2_1916_903)"/>
<path d="M53.11 1L88.5198 33.577L43.7746 34.9753L35.2808 1L53.11 1Z" fill="black" stroke="black" stroke-width="2"/>
<path d="M53.11 149L88.5198 116.423L43.7746 115.025L35.2808 149L53.11 149Z" fill="black" stroke="black" stroke-width="2"/>
<g clip-path="url(#clip0_1916_903)">
<path fill-rule="evenodd" clip-rule="evenodd" d="M78.3836 74.834C79.4055 86.6018 92.1382 95.9034 107.695 95.9033C121.773 95.9033 133.538 88.2868 136.405 78.1184C135.766 78.4771 135.069 78.8495 134.324 79.2223C130.538 81.1152 125.265 83.1324 119.833 83.1324C116.724 83.1324 114.1 81.9545 111.861 80.404C109.699 78.9071 107.741 76.9496 105.978 75.1862L105.896 75.1042C104.039 73.2473 102.382 71.6009 100.633 70.39C98.9275 69.2094 97.3031 68.5665 95.5571 68.5665C91.2784 68.5665 86.8405 70.1906 83.3432 71.9393C81.6208 72.8004 80.1836 73.6629 79.1812 74.3073C78.8713 74.5064 78.604 74.6842 78.3836 74.834ZM78.9854 68.4912C81.8534 58.3231 93.6181 50.7068 107.695 50.7068C123.252 50.7068 135.985 60.0083 137.007 71.776C136.787 71.9255 136.519 72.1031 136.21 72.3022C135.207 72.9468 133.77 73.8091 132.047 74.6702C128.55 76.419 124.112 78.043 119.834 78.0431C118.088 78.0431 116.463 77.4003 114.758 76.2197C113.009 75.0087 111.352 73.3624 109.495 71.5055L109.413 71.4235C107.649 69.6601 105.692 67.7026 103.53 66.2056C101.29 64.6552 98.6664 63.4773 95.5571 63.4773C90.1253 63.4773 84.8526 65.4946 81.067 67.3875C80.3218 67.76 79.6247 68.1327 78.9854 68.4912Z" fill="black"/>
</g>
<path d="M36.998 62.9998L38.944 66.4052C39.6347 67.6139 39.998 68.9821 39.998 70.3743V73.4998V76.6252C39.998 78.0175 39.6347 79.3856 38.944 80.5944L36.998 83.9998" stroke="black" stroke-width="2" stroke-linecap="round"/>
<path d="M33.1016 73.4987C33.1016 67.0473 28.1582 61.7986 22.082 61.7986C13.6016 61.7986 1.90156 73.4988 1.90156 73.4988C1.90156 73.4988 13.6016 85.1986 22.082 85.1986C28.1583 85.1986 33.1016 79.95 33.1016 73.4987Z" fill="black"/>
<path d="M33.1016 73.4987C33.1016 70.273 30.6299 67.6486 27.5918 67.6486C23.3516 67.6486 17.5016 73.4987 17.5016 73.4987C17.5016 73.4987 23.3516 79.3486 27.5918 79.3486C30.6299 79.3486 33.1016 76.7243 33.1016 73.4987Z" fill="black"/>
<path d="M33.1016 73.4987C33.1016 67.0473 28.1582 61.7986 22.082 61.7986C13.6016 61.7986 1.90156 73.4988 1.90156 73.4988C1.90156 73.4988 13.6016 85.1986 22.082 85.1986C28.1583 85.1986 33.1016 79.95 33.1016 73.4987ZM33.1016 73.4987C33.1016 70.273 30.6299 67.6486 27.5918 67.6486C23.3516 67.6486 17.5016 73.4987 17.5016 73.4987C17.5016 73.4987 23.3516 79.3486 27.5918 79.3486C30.6299 79.3486 33.1016 76.7243 33.1016 73.4987Z" stroke="black" stroke-width="2" stroke-linejoin="round"/>
<defs>
<clipPath id="clip0_1916_903">
<rect width="57" height="57" fill="white" transform="translate(107.695 32.9998) rotate(45)"/>
</clipPath>
</defs>
</svg>
