<svg width="377" height="90" fill="none" xmlns="http://www.w3.org/2000/svg">
<g clip-path="url(#clip0_1913_113)">
<path d="M22.876 29.4006L72.1258 24.7419L72.1258 63.8778L22.9115 60.5526C22.2159 60.5056 21.6758 59.9277 21.6758 59.2306L21.6758 30.7197C21.6758 30.0363 22.1956 29.465 22.876 29.4006Z" fill="white" stroke="black" stroke-width="1.35"/>
<path d="M83.0658 24.543C83.2167 24.5742 83.325 24.7071 83.325 24.8612L83.325 63.739C83.325 63.8931 83.2167 64.026 83.0658 64.0572L78.0658 65.0906C77.8641 65.1323 77.675 64.9782 77.675 64.7723L77.675 23.8279C77.675 23.622 77.8641 23.4679 78.0658 23.5096L83.0658 24.543Z" fill="white" stroke="black" stroke-width="1.35"/>
<mask id="path-3-inside-1_1913_113" fill="white">
<rect x="77" y="21.2" width="46.2" height="5.6" rx="1" transform="rotate(90 77 21.2)"/>
</mask>
<rect x="77" y="21.2" width="46.2" height="5.6" rx="1" transform="rotate(90 77 21.2)" fill="white" stroke="black" stroke-width="2.7" mask="url(#path-3-inside-1_1913_113)"/>
<mask id="path-4-inside-2_1913_113" fill="white">
<path fill-rule="evenodd" clip-rule="evenodd" d="M84 56.1997C87.866 56.1997 91 50.8718 91 44.2997C91 37.7275 87.866 32.3997 84 32.3997V56.1997Z"/>
</mask>
<path fill-rule="evenodd" clip-rule="evenodd" d="M84 56.1997C87.866 56.1997 91 50.8718 91 44.2997C91 37.7275 87.866 32.3997 84 32.3997V56.1997Z" fill="black"/>
<path d="M84 56.1997H83V57.1997H84V56.1997ZM84 32.3997V31.3997H83V32.3997H84ZM90 44.2997C90 47.4391 89.2494 50.2326 88.0878 52.2072C86.9127 54.205 85.4339 55.1997 84 55.1997V57.1997C86.4321 57.1997 88.4533 55.5304 89.8117 53.2212C91.1836 50.8889 92 47.7324 92 44.2997H90ZM84 33.3997C85.4339 33.3997 86.9127 34.3943 88.0878 36.3921C89.2494 38.3668 90 41.1602 90 44.2997H92C92 40.8669 91.1836 37.7104 89.8117 35.3781C88.4533 33.0689 86.4321 31.3997 84 31.3997V33.3997ZM83 32.3997V56.1997H85V32.3997H83Z" fill="black" mask="url(#path-4-inside-2_1913_113)"/>
<path d="M24.11 10.5C24.2354 10.5 24.3562 10.5471 24.4485 10.632L24.7847 10.2666L24.4485 10.632L39.8583 24.8091C40.188 25.1124 39.9831 25.6628 39.5354 25.6768L20.3902 26.2751C20.1551 26.2824 19.9466 26.1248 19.8895 25.8966L16.1957 11.1213C16.1168 10.8057 16.3555 10.5 16.6808 10.5L24.11 10.5Z" fill="black" stroke="black"/>
<path d="M24.11 79.5C24.2354 79.5 24.3562 79.4529 24.4485 79.368L24.7847 79.7334L24.4485 79.368L39.8583 65.1909C40.188 64.8876 39.9831 64.3372 39.5354 64.3232L20.3902 63.7249C20.1551 63.7176 19.9466 63.8752 19.8895 64.1034L16.1957 78.8787C16.1168 79.1943 16.3555 79.5 16.6808 79.5H24.11Z" fill="black" stroke="black"/>
<g clip-path="url(#clip1_1913_113)">
<path fill-rule="evenodd" clip-rule="evenodd" d="M36.1122 44.9225C36.5891 50.4141 42.531 54.7549 49.791 54.7549C56.3605 54.7548 61.8508 51.2005 63.189 46.4552C62.8907 46.6226 62.5654 46.7964 62.2175 46.9704C60.451 47.8537 57.9904 48.7951 55.4555 48.7951C54.0045 48.7951 52.78 48.2454 51.7349 47.5219C50.7259 46.8233 49.8124 45.9098 48.9896 45.0868L48.9513 45.0486C48.0848 44.182 47.3115 43.4137 46.4953 42.8486C45.6994 42.2977 44.9413 41.9977 44.1265 41.9977C42.1298 41.9977 40.0588 42.7556 38.4267 43.5716C37.6229 43.9735 36.9522 44.376 36.4844 44.6767C36.3398 44.7696 36.2151 44.8526 36.1122 44.9225ZM36.3931 41.9625C37.7315 37.2174 43.2216 33.6631 49.791 33.6631C57.0509 33.6631 62.9927 38.0038 63.4698 43.4954C63.367 43.5652 63.2422 43.6481 63.0977 43.741C62.6297 44.0418 61.9592 44.4442 61.1554 44.8461C59.5232 45.6621 57.4522 46.42 55.4555 46.4201C54.6407 46.4201 53.8826 46.1201 53.0868 45.5692C52.2705 45.004 51.4973 44.2358 50.6307 43.3692L50.5925 43.331C49.7696 42.508 48.8562 41.5945 47.8471 40.8959C46.802 40.1724 45.5775 39.6227 44.1265 39.6227C41.5917 39.6227 39.1311 40.5641 37.3644 41.4475C37.0167 41.6213 36.6914 41.7952 36.3931 41.9625Z" fill="black"/>
</g>
<path d="M16.7992 39.3999L17.1452 40.0053C17.8359 41.2141 18.1992 42.5822 18.1992 43.9744V44.2999V44.6254C18.1992 46.0176 17.8359 47.3857 17.1452 48.5945L16.7992 49.1999" stroke="black" stroke-linecap="round"/>
<path d="M14.9805 44.2994C14.9805 41.2888 12.6736 38.8394 9.83799 38.8394C5.88047 38.8394 0.420469 44.2994 0.420469 44.2994C0.420469 44.2994 5.88047 49.7594 9.83799 49.7594C12.6736 49.7594 14.9805 47.31 14.9805 44.2994Z" fill="black"/>
<path d="M14.9805 44.2994C14.9805 42.7941 13.827 41.5694 12.4092 41.5694C10.4305 41.5694 7.70047 44.2994 7.70047 44.2994C7.70047 44.2994 10.4305 47.0294 12.4092 47.0294C13.827 47.0294 14.9805 45.8047 14.9805 44.2994Z" fill="black"/>
<path d="M14.9805 44.2994C14.9805 41.2888 12.6736 38.8394 9.83799 38.8394C5.88047 38.8394 0.42047 44.2994 0.42047 44.2994C0.42047 44.2994 5.88047 49.7594 9.83799 49.7594C12.6736 49.7594 14.9805 47.31 14.9805 44.2994ZM14.9805 44.2994C14.9805 42.7941 13.827 41.5694 12.4092 41.5694C10.4305 41.5694 7.70047 44.2994 7.70047 44.2994C7.70047 44.2994 10.4305 47.0294 12.4092 47.0294C13.827 47.0294 14.9805 45.8047 14.9805 44.2994Z" stroke="black" stroke-linejoin="round"/>
<path d="M103.687 60L99.2575 55.571V34.329L103.687 29.9H117.038L121.489 34.329V41.252H115.404V37.296L114.093 35.9845H106.654L105.342 37.296V52.604L106.654 53.9155H114.093L115.404 52.604V48.648H121.489V55.571L117.038 60H103.687ZM104.504 58.323H116.243L119.833 54.7325V50.1315H117.081V53.3995L114.888 55.571H105.858L103.665 53.3995V36.436L105.858 34.286H114.888L117.081 36.436V39.704H119.833V35.103L116.243 31.5125H104.504L100.913 35.103V54.7325L104.504 58.323ZM130.651 60L126.222 55.571V34.329L130.651 29.9H144.927L149.356 34.329V55.571L144.927 60H130.651ZM133.618 53.9155H141.96L143.271 52.604V37.296L141.96 35.9845H133.618L132.306 37.296V52.604L133.618 53.9155ZM131.511 58.28H144.088L147.7 54.6895V35.103L144.088 31.5125H131.511L127.92 35.103V54.6895L131.511 58.28ZM132.865 55.528L130.672 53.3565V36.436L132.865 34.286H142.755L144.927 36.436V53.3565L142.755 55.528H132.865ZM154.314 60V29.9H173.449V35.9845H160.399V41.768H172.632V47.8525H160.399V60H154.314ZM155.97 58.3875H158.743V46.154H170.977V43.3805H158.743V34.286H171.837V31.5125H155.97V58.3875ZM177.536 60V29.9H196.671V35.9845H183.62V41.768H195.854V47.8525H183.62V60H177.536ZM179.191 58.3875H181.965V46.154H194.198V43.3805H181.965V34.286H195.058V31.5125H179.191V58.3875ZM200.758 60V29.9H220.323V35.9845H206.842V41.768H218.839V47.8525H206.842V53.9155H220.323V60H200.758ZM202.456 58.28H218.861V55.528H205.23V46.1755H217.356V43.4235H205.23V34.286H218.861V31.5125H202.456V58.28ZM225.281 60V29.9H244.846V35.9845H231.366V41.768H243.363V47.8525H231.366V53.9155H244.846V60H225.281ZM226.98 58.28H243.384V55.528H229.753V46.1755H241.879V43.4235H229.753V34.286H243.384V31.5125H226.98V58.28ZM265.86 60L261.431 55.571V34.329L265.86 29.9H279.212L283.662 34.329V41.252H277.578V37.296L276.266 35.9845H268.827L267.516 37.296V52.604L268.827 53.9155H276.266L277.578 52.604V48.648H283.662V55.571L279.212 60H265.86ZM266.677 58.323H278.416L282.007 54.7325V50.1315H279.255V53.3995L277.062 55.571H268.032L265.839 53.3995V36.436L268.032 34.286H277.062L279.255 36.436V39.704H282.007V35.103L278.416 31.5125H266.677L263.087 35.103V54.7325L266.677 58.323ZM288.61 60V29.9H307.165L311.594 34.329V43.66L308.971 46.068L311.594 48.9275V60H305.509V51.0775L303.359 48.9275H294.695V60H288.61ZM290.287 58.366H293.039V47.186H304.069L307.208 50.4755V58.366H309.981V49.5725L306.606 45.896L309.895 43.015V35.1245L306.305 31.534H290.287V58.366ZM294.695 42.843H304.198L305.509 41.51V37.296L304.198 35.9845H294.695V42.843ZM293.039 44.4125V34.286H304.95L307.122 36.4575V42.0905L304.477 44.4125H293.039ZM316.53 60V29.9H336.095V35.9845H322.615V41.768H334.612V47.8525H322.615V53.9155H336.095V60H316.53ZM318.229 58.28H334.633V55.528H321.002V46.1755H333.128V43.4235H321.002V34.286H334.633V31.5125H318.229V58.28ZM341.269 29.9H347.353V53.894H348.299L351.868 32.48H362.661L366.252 53.894H367.176V29.9H373.261V60H361.307L357.781 38.6505H356.749L353.223 60H341.269V29.9ZM342.924 31.534V58.3445H351.718L355.523 37.1025H359.006L362.79 58.3445H371.605V31.534H368.832V55.5495H365.026L361.221 34.286H353.287L349.503 55.5495H345.676V31.534H342.924Z" fill="black"/>
</g>
<defs>
<clipPath id="clip0_1913_113">
<rect width="377" height="90" fill="white"/>
</clipPath>
<clipPath id="clip1_1913_113">
<rect width="26.6" height="26.6" fill="white" transform="translate(49.791 25.3999) rotate(45)"/>
</clipPath>
</defs>
</svg>
