<svg width="75" height="76" viewBox="0 0 75 76" fill="none" xmlns="http://www.w3.org/2000/svg">
<circle cx="37.5" cy="38" r="37.5" fill="#B9FF66"/>
<ellipse cx="25.1992" cy="27.8999" rx="6" ry="10" fill="black"/>
<ellipse cx="49.8008" cy="27.8999" rx="6" ry="10" fill="black"/>
<path d="M37.9194 54.232L32.5754 63H27.1994L33.6954 52.952C33.0767 52.696 32.458 52.3227 31.8394 51.832C31.2207 51.32 30.7087 50.648 30.3034 49.816C29.898 48.9627 29.6954 47.9173 29.6954 46.68C29.6954 44.568 30.4527 42.9573 31.9674 41.848C33.482 40.7173 35.6047 40.152 38.3354 40.152H45.7594V63H40.9274V54.232H37.9194ZM38.5274 44.12C37.6954 44.12 36.9807 44.216 36.3834 44.408C35.8074 44.6 35.3594 44.9093 35.0394 45.336C34.7407 45.7627 34.5914 46.328 34.5914 47.032C34.5914 48.0347 34.922 48.8347 35.5834 49.432C36.266 50.008 37.29 50.296 38.6554 50.296H40.9274V44.12H38.5274Z" fill="black"/>
</svg>
